<?xml version="1.0" ?><!DOCTYPE svg  PUBLIC '-//W3C//DTD SVG 1.1//EN'  'http://www.w3.org/Graphics/SVG/1.1/DTD/svg11.dtd'><svg height="461.000" viewBox="-213.000 -221.000 404.000 461.000" width="404.000" xmlns="http://www.w3.org/2000/svg"><line fill="none" stroke="none" stroke-linecap="round" stroke-width="2.0" x1="0.0" x2="0.0" y1="0.0" y2="0.0"/><polygon fill="#000" fill-rule="evenodd" points="0.0,-0.0 -9.0,-5.0 -7.0,-0.0 -9.0,5.0" stroke="#000" stroke-linejoin="round"/><polyline fill="none" points="-200.0,-100.0 -186.0,-100.0 -179.0,-112.124355653 -172.0,-100.0 -158.0,-100.0 -151.0,-112.124355653 -158.0,-124.248711306 -144.0,-124.248711306 -137.0,-136.373066959 -130.0,-124.248711306 -116.0,-124.248711306 -123.0,-112.124355653 -116.0,-100.0 -102.0,-100.0 -95.0,-112.124355653 -88.0,-100.0 -74.0,-100.0 -67.0,-112.124355653 -74.0,-124.248711306 -60.0,-124.248711306 -53.0,-136.373066959 -60.0,-148.497422612 -74.0,-148.497422612 -67.0,-160.621778265 -74.0,-172.746133918 -60.0,-172.746133918 -53.0,-184.870489571 -46.0,-172.746133918 -32.0,-172.746133918 -25.0,-184.870489571 -32.0,-196.994845224 -18.0,-196.994845224 -11.0,-209.119200877 -4.0,-196.994845224 10.0,-196.994845224 3.0,-184.870489571 10.0,-172.746133918 24.0,-172.746133918 31.0,-184.870489571 38.0,-172.746133918 52.0,-172.746133918 45.0,-160.621778265 52.0,-148.497422612" stroke="#f00" stroke-linecap="round" stroke-linejoin="round" stroke-width="2.0"/><polyline fill="none" points="52.0,-148.497422612 38.0,-148.497422612 31.0,-136.373066959 38.0,-124.248711306 52.0,-124.248711306 45.0,-112.124355653 52.0,-100.0 66.0,-100.0 73.0,-112.124355653 80.0,-100.0 94.0,-100.0 101.0,-112.124355653 94.0,-124.248711306 108.0,-124.248711306 115.0,-136.373066959 122.0,-124.248711306 136.0,-124.248711306 129.0,-112.124355653 136.0,-100.0 150.0,-100.0 157.0,-112.124355653 164.0,-100.0 178.0,-100.0 171.0,-87.875644347 178.0,-75.751288694 164.0,-75.751288694 157.0,-63.6269330411 164.0,-51.5025773881 178.0,-51.5025773881 171.0,-39.3782217351 178.0,-27.2538660821 164.0,-27.2538660821 157.0,-15.1295104291 150.0,-27.2538660821 136.0,-27.2538660821 129.0,-15.1295104291 136.0,-3.00515477614 122.0,-3.00515477614 115.0,9.11920087684 122.0,21.2435565298 136.0,21.2435565298 129.0,33.3679121828 136.0,45.4922678358" stroke="#f00" stroke-linecap="round" stroke-linejoin="round" stroke-width="2.0"/><polyline fill="none" points="136.0,45.4922678358 150.0,45.4922678358 157.0,33.3679121828 164.0,45.4922678358 178.0,45.4922678358 171.0,57.6166234888 178.0,69.7409791417 164.0,69.7409791417 157.0,81.8653347947 164.0,93.9896904477 178.0,93.9896904477 171.0,106.114046101 178.0,118.238401754 164.0,118.238401754 157.0,130.362757407 150.0,118.238401754 136.0,118.238401754 129.0,130.362757407 136.0,142.48711306 122.0,142.48711306 115.0,154.611468713 108.0,142.48711306 94.0,142.48711306 101.0,130.362757407 94.0,118.238401754 80.0,118.238401754 73.0,130.362757407 66.0,118.238401754 52.0,118.238401754 45.0,130.362757407 52.0,142.48711306 38.0,142.48711306 31.0,154.611468713 38.0,166.735824366 52.0,166.735824366 45.0,178.860180019 52.0,190.984535672 38.0,190.984535672 31.0,203.108891325 24.0,190.984535672 10.0,190.984535672 3.0,203.108891325 10.0,215.233246978" stroke="#f00" stroke-linecap="round" stroke-linejoin="round" stroke-width="2.0"/><polyline fill="none" points="10.0,215.233246978 -4.0,215.233246978 -11.0,227.357602631 -18.0,215.233246978 -32.0,215.233246978 -25.0,203.108891325 -32.0,190.984535672 -46.0,190.984535672 -53.0,203.108891325 -60.0,190.984535672 -74.0,190.984535672 -67.0,178.860180019 -74.0,166.735824366 -60.0,166.735824366 -53.0,154.611468713 -60.0,142.48711306 -74.0,142.48711306 -67.0,130.362757407 -74.0,118.238401754 -88.0,118.238401754 -95.0,130.362757407 -102.0,118.238401754 -116.0,118.238401754 -123.0,130.362757407 -116.0,142.48711306 -130.0,142.48711306 -137.0,154.611468713 -144.0,142.48711306 -158.0,142.48711306 -151.0,130.362757407 -158.0,118.238401754 -172.0,118.238401754 -179.0,130.362757407 -186.0,118.238401754 -200.0,118.238401754 -193.0,106.114046101 -200.0,93.9896904477 -186.0,93.9896904477 -179.0,81.8653347947 -186.0,69.7409791417 -200.0,69.7409791417 -193.0,57.6166234888 -200.0,45.4922678358" stroke="#f00" stroke-linecap="round" stroke-linejoin="round" stroke-width="2.0"/><polyline fill="none" points="-200.0,45.4922678358 -186.0,45.4922678358 -179.0,33.3679121828 -172.0,45.4922678358 -158.0,45.4922678358 -151.0,33.3679121828 -158.0,21.2435565298 -144.0,21.2435565298 -137.0,9.11920087684 -144.0,-3.00515477614 -158.0,-3.00515477614 -151.0,-15.1295104291 -158.0,-27.2538660821 -172.0,-27.2538660821 -179.0,-15.1295104291 -186.0,-27.2538660821 -200.0,-27.2538660821 -193.0,-39.3782217351 -200.0,-51.5025773881 -186.0,-51.5025773881 -179.0,-63.6269330411 -186.0,-75.751288694 -200.0,-75.751288694 -193.0,-87.875644347 -200.0,-100.0" stroke="#f00" stroke-linecap="round" stroke-linejoin="round" stroke-width="2.0"/><line fill="none" stroke="none" stroke-linecap="round" stroke-width="2.0" x1="0.0" x2="0.0" y1="0.0" y2="0.0"/></svg>