<?xml version="1.0" ?><!DOCTYPE svg  PUBLIC '-//W3C//DTD SVG 1.1//EN'  'http://www.w3.org/Graphics/SVG/1.1/DTD/svg11.dtd'><svg height="186.000" viewBox="-103.000 -172.000 207.000 186.000" width="207.000" xmlns="http://www.w3.org/2000/svg"><line fill="none" stroke="none" stroke-linecap="round" stroke-width="3.0" x1="0.0" x2="0.0" y1="0.0" y2="0.0"/><polyline fill="none" points="-60.0,-100.0 -49.1627500144,-102.025833118 -39.7891306906,-107.829732483 -33.1451012593,-116.627849327 -30.1279747111,-127.231949216 -31.1452307048,-138.209889702 -36.0594831816,-148.079039091 -44.2070351137,-155.506514072 -54.4875144655,-159.489192991 -65.5124855345,-159.489192991 -75.7929648863,-155.506514072 -83.9405168184,-148.079039091 -88.8547692952,-138.209889702 -89.8720252889,-127.231949216 -86.8548987407,-116.627849327 -80.2108693094,-107.829732483 -70.8372499856,-102.025833118 -60.0,-100.0" stroke="#00f" stroke-linecap="round" stroke-linejoin="round" stroke-width="3.0"/><polyline fill="none" points="0.0,-100.0 10.8372499856,-102.025833118 20.2108693094,-107.829732483 26.8548987407,-116.627849327 29.8720252889,-127.231949216 28.8547692952,-138.209889702 23.9405168184,-148.079039091 15.7929648863,-155.506514072 5.5124855345,-159.489192991 -5.5124855345,-159.489192991 -15.7929648863,-155.506514072 -23.9405168184,-148.079039091 -28.8547692952,-138.209889702 -29.8720252889,-127.231949216 -26.8548987407,-116.627849327 -20.2108693094,-107.829732483 -10.8372499856,-102.025833118 -1.06581410364e-14,-100.0" stroke="#000" stroke-linecap="round" stroke-linejoin="round" stroke-width="3.0"/><polyline fill="none" points="60.0,-100.0 70.8372499856,-102.025833118 80.2108693094,-107.829732483 86.8548987407,-116.627849327 89.8720252889,-127.231949216 88.8547692952,-138.209889702 83.9405168184,-148.079039091 75.7929648863,-155.506514072 65.5124855345,-159.489192991 54.4875144655,-159.489192991 44.2070351137,-155.506514072 36.0594831816,-148.079039091 31.1452307048,-138.209889702 30.1279747111,-127.231949216 33.1451012593,-116.627849327 39.7891306906,-107.829732483 49.1627500144,-102.025833118 60.0,-100.0" stroke="#f00" stroke-linecap="round" stroke-linejoin="round" stroke-width="3.0"/><polyline fill="none" points="30.0,-70.0 40.8372499856,-72.0258331179 50.2108693094,-77.8297324834 56.8548987407,-86.6278493267 59.8720252889,-97.2319492161 58.8547692952,-108.209889702 53.9405168184,-118.079039091 45.7929648863,-125.506514072 35.5124855345,-129.489192991 24.4875144655,-129.489192991 14.2070351137,-125.506514072 6.05948318159,-118.079039091 1.14523070482,-108.209889702 0.127974711149,-97.2319492161 3.14510125935,-86.6278493267 9.7891306906,-77.8297324834 19.1627500144,-72.0258331179 30.0,-70.0" stroke="#0f0" stroke-linecap="round" stroke-linejoin="round" stroke-width="3.0"/><polyline fill="none" points="-30.0,-70.0 -19.1627500144,-72.0258331179 -9.7891306906,-77.8297324834 -3.14510125935,-86.6278493267 -0.127974711149,-97.2319492161 -1.14523070482,-108.209889702 -6.05948318159,-118.079039091 -14.2070351137,-125.506514072 -24.4875144655,-129.489192991 -35.5124855345,-129.489192991 -45.7929648863,-125.506514072 -53.9405168184,-118.079039091 -58.8547692952,-108.209889702 -59.8720252889,-97.2319492161 -56.8548987407,-86.6278493267 -50.2108693094,-77.8297324834 -40.8372499856,-72.0258331179 -30.0,-70.0" stroke="#ff0" stroke-linecap="round" stroke-linejoin="round" stroke-width="3.0"/><polygon fill="#ff0" fill-rule="evenodd" points="-30.0,-70.0 -39.0,-75.0 -37.0,-70.0 -39.0,-65.0" stroke="#ff0" stroke-linejoin="round"/></svg>